<?xml version="1.0" standalone="no"?>
<!DOCTYPE svg PUBLIC "-//W3C//DTD SVG 20010904//EN"
 "http://www.w3.org/TR/2001/REC-SVG-20010904/DTD/svg10.dtd">
<svg version="1.0" xmlns="http://www.w3.org/2000/svg"
 width="220.000000pt" height="220.000000pt" viewBox="0 0 220.000000 220.000000"
 preserveAspectRatio="xMidYMid meet">
<metadata>
Created by potrace 1.14, written by Peter Selinger 2001-2017
</metadata>
<g transform="translate(0.000000,220.000000) scale(0.100000,-0.100000)"
fill="#000000" stroke="none">
<path d="M1080 2095 c0 -14 -34 -107 -75 -208 -103 -249 -117 -278 -129 -273
-330 137 -454 191 -469 204 -25 23 -47 0 -25 -25 14 -16 67 -136 179 -407 16
-39 27 -72 24 -74 -2 -2 -93 -41 -202 -87 -173 -72 -242 -98 -291 -111 -24 -6
-13 -34 14 -34 23 0 457 -173 476 -189 9 -8 -177 -459 -199 -483 -24 -26 -1
-49 24 -25 24 21 473 208 484 201 5 -3 9 -9 9 -15 0 -5 9 -28 19 -52 63 -138
161 -390 161 -412 0 -44 31 -27 45 25 7 25 47 128 89 230 43 102 82 196 87
209 5 12 15 21 22 18 6 -3 50 -21 97 -40 47 -19 139 -58 205 -86 65 -28 124
-51 129 -51 5 0 20 -10 33 -22 18 -16 26 -19 35 -10 9 9 8 16 -4 29 -23 25
-209 476 -200 484 17 16 454 189 477 189 18 0 25 5 25 20 0 15 -7 20 -25 20
-27 0 -485 185 -485 196 0 2 9 23 20 46 11 24 54 126 96 228 42 102 83 193 92
203 23 25 0 47 -25 25 -10 -9 -56 -32 -103 -51 -47 -19 -150 -62 -229 -96 -80
-33 -147 -59 -149 -57 -14 14 -195 466 -194 484 1 16 -4 22 -18 22 -15 0 -20
-7 -20 -25z m119 -249 c51 -124 91 -230 89 -237 -2 -6 -46 -28 -97 -49 l-92
-37 -99 41 -98 41 15 35 c8 19 51 124 96 233 44 108 84 197 87 197 3 0 47
-101 99 -224z m-554 -150 c125 -52 229 -96 232 -99 4 -5 -60 -176 -73 -195 -4
-6 -197 -83 -200 -80 -4 5 -194 458 -194 464 0 7 7 5 235 -90z m1145 90 c0 -6
-188 -458 -193 -462 -5 -6 -176 63 -194 78 -13 11 -86 188 -79 195 5 6 449
192 459 192 4 1 7 -1 7 -3z m-800 -233 c50 -20 89 -37 87 -39 -8 -8 -243 -101
-246 -98 -4 4 61 174 67 174 1 0 43 -17 92 -37z m352 -54 c29 -72 33 -89 20
-84 -63 23 -241 99 -238 102 3 4 167 70 176 72 3 1 22 -40 42 -90z m83 -203
c21 -50 47 -114 60 -142 l22 -51 -59 -145 -60 -146 -137 -56 c-76 -31 -144
-56 -152 -56 -8 0 -76 25 -151 56 l-137 57 -55 136 c-31 75 -56 143 -56 151 0
8 25 77 56 152 53 128 58 138 93 152 20 8 85 35 144 59 l108 44 143 -59 144
-60 37 -92z m-686 -50 c-29 -69 -54 -125 -55 -123 -11 11 -73 183 -67 185 5 2
44 18 88 36 44 18 81 32 83 30 2 -1 -20 -59 -49 -128z m791 84 c30 -13 56 -24
58 -25 1 -1 -15 -44 -36 -94 l-39 -93 -51 126 c-29 69 -52 128 -52 131 0 3 15
-1 33 -8 17 -8 57 -25 87 -37z m-892 -132 l40 -96 -38 -93 c-21 -52 -44 -95
-50 -97 -6 -2 -62 17 -123 43 -227 95 -293 123 -314 129 -13 4 -23 11 -23 15
0 5 35 22 78 39 43 18 147 61 232 96 85 36 155 64 156 63 1 -1 20 -45 42 -99z
m1092 49 c47 -19 145 -60 219 -91 119 -49 132 -56 110 -64 -13 -5 -42 -17 -64
-27 -22 -9 -65 -27 -95 -40 -30 -12 -109 -45 -176 -72 l-121 -51 -41 99 -41
99 41 99 c37 91 43 99 62 91 12 -4 59 -24 106 -43z m-991 -293 c27 -65 45
-120 41 -122 -6 -2 -148 51 -168 63 -1 1 14 43 35 93 20 51 38 91 39 89 2 -2
26 -57 53 -123z m815 32 c20 -49 35 -90 34 -91 -2 0 -43 -18 -92 -38 -72 -30
-87 -34 -82 -19 20 52 100 241 102 239 1 -1 19 -42 38 -91z m-847 -143 l93
-38 41 -98 c23 -54 39 -100 37 -103 -3 -2 -47 -22 -99 -43 -52 -22 -154 -64
-228 -95 -74 -30 -136 -54 -138 -52 -2 2 16 50 40 107 24 57 68 161 97 232 29
70 56 127 59 127 3 0 48 -17 98 -37z m921 -35 c49 -114 162 -389 162 -394 0
-7 -455 178 -468 191 -2 2 13 47 35 99 l38 96 90 39 c50 21 95 40 101 40 6 1
25 -32 42 -71z m-671 -70 l123 -52 -88 -37 c-48 -20 -90 -34 -94 -30 -12 11
-78 171 -70 171 4 0 62 -23 129 -52z m382 -45 c-18 -43 -33 -79 -34 -80 -1 -2
-43 14 -93 34 -51 20 -90 38 -88 40 12 12 242 100 244 93 2 -4 -12 -43 -29
-87z m-137 -56 l96 -39 -75 -181 c-41 -100 -84 -206 -96 -234 -12 -29 -25 -53
-29 -53 -3 0 -13 19 -21 43 -15 39 -117 288 -137 332 -5 11 -16 36 -23 56
l-15 36 97 41 c53 22 99 40 102 39 3 -1 48 -19 101 -40z"/>
</g>
</svg>
